<?xml version="1.0" standalone="no"?>
<!DOCTYPE svg PUBLIC "-//W3C//DTD SVG 20010904//EN"
 "http://www.w3.org/TR/2001/REC-SVG-20010904/DTD/svg10.dtd">
<svg version="1.0" xmlns="http://www.w3.org/2000/svg"
 width="512.000000pt" height="512.000000pt" viewBox="0 0 512.000000 512.000000"
 preserveAspectRatio="xMidYMid meet">
<metadata>
Created by potrace 1.14, written by Peter Selinger 2001-2017
</metadata>
<g transform="translate(0.000000,512.000000) scale(0.100000,-0.100000)"
fill="#000000" stroke="none">
<path d="M540 4769 c-216 -23 -386 -181 -425 -394 -7 -41 -6 -2861 1 -2904 7
-44 36 -118 63 -162 62 -102 202 -198 322 -219 36 -7 753 -9 2095 -8 1978 3
2040 4 2089 22 113 43 221 135 268 228 60 120 57 18 54 1613 l-2 1460 -23 58
c-54 133 -172 244 -306 287 l-71 23 -2005 1 c-1103 1 -2030 -2 -2060 -5z
m4046 -367 c16 -7 39 -27 49 -45 18 -30 19 -78 19 -1302 1 -698 0 -1279 -2
-1290 -3 -20 -4 -20 -2090 -21 -1148 0 -2089 3 -2092 7 -3 4 -5 583 -4 1286 0
995 3 1286 13 1310 6 16 27 38 46 49 32 19 80 19 2032 19 1600 0 2004 -3 2029
-13z"/>
<path d="M2294 4044 c-54 -128 -49 -123 -197 -208 -83 -48 -104 -56 -135 -52
-20 3 -64 8 -97 11 -33 3 -74 8 -91 11 -31 6 -32 5 -114 -138 -46 -78 -96
-164 -112 -190 l-29 -46 78 -109 78 -108 -1 -138 c-1 -155 11 -123 -107 -282
l-48 -65 110 -188 c60 -103 113 -186 118 -186 4 1 40 5 78 8 39 4 93 9 121 12
50 6 56 3 169 -62 64 -37 123 -77 130 -88 6 -12 32 -67 56 -123 l43 -103 218
0 218 0 10 28 c6 15 14 36 19 47 5 11 21 47 35 80 15 33 30 66 34 74 4 7 61
44 126 83 116 67 121 69 170 63 28 -3 69 -8 91 -11 22 -2 56 -7 76 -10 l36 -5
112 191 112 190 -69 93 c-38 50 -73 101 -79 112 -7 16 -9 144 -4 270 1 12 35
66 76 122 l75 102 -36 63 c-20 35 -48 83 -62 108 -97 172 -127 215 -142 205
-6 -3 -69 -11 -172 -21 -67 -6 -68 -6 -144 40 -42 25 -79 46 -83 46 -3 1 -23
13 -45 29 -37 26 -59 67 -129 234 l-11 27 -217 0 -216 0 -49 -116z m421 -399
c258 -68 442 -320 430 -589 -7 -164 -64 -287 -187 -407 -97 -93 -225 -147
-368 -154 -275 -13 -509 152 -592 418 -33 106 -31 244 5 350 103 299 407 462
712 382z"/>
<path d="M1542 919 c-20 -9 -47 -28 -60 -41 -28 -31 -51 -102 -45 -143 10 -71
73 -137 142 -151 27 -6 36 -15 55 -58 31 -68 97 -131 166 -157 54 -21 66 -22
745 -22 380 0 707 3 727 7 87 16 181 96 214 181 14 38 20 43 55 49 46 7 100
52 124 102 35 75 2 180 -73 226 l-37 23 -988 1 c-904 0 -992 -1 -1025 -17z"/>
</g>
</svg>
